# xmcd
#
# Track frame offsets: 
#        150
#        20635
#        39414
#        58261
#        73970
#        88981
#        105570
#        125687
#        143832
#        161371
#        178586
#        198088
#        217435
#        232907
#        248648
#        270508
#        288962
#        306058
#        323737
#        341728
#
# Disc length: 4750 seconds
#
# Revision: 5
# Processed by: cddbd v1.5.2PL0 Copyright (c) Steve Scherf et al.
# Submitted via: ExactAudioCopy v1.0b3
#
DISCID=2d128c14
DTITLE=Various Artist - Essential - The R&B Selection [CD 1)
DYEAR=2009
DGENRE=R&B
TTITLE0=R. Kelly - If I Could Turn Back the Hands of Time
TTITLE1=Usher - U Got It Bad
TTITLE2=Kelly Rowland - Stole
TTITLE3=P!nk - Who Knew
TTITLE4=Big Brovaz - Baby Boy
TTITLE5=Cassidy - A.M. to P.M.
TTITLE6=Cypress Hill - I Ain't Goin' Out Like That
TTITLE7=Rob Base and DJ EZ Rock - It Takes Two
TTITLE8=M.O.P - Ante Up (Robbin Hoodz Theory)
TTITLE9=Dead Prez - Hip Hop
TTITLE10=Maxwell - Sumthin', Sumthin'
TTITLE11=Zhané - Hey Mr. D.J.
TTITLE12=B2K - Girlfriend
TTITLE13=Eamon - On and On
TTITLE14=JC Chasez - Blowin' Me Up (With Her Love)
TTITLE15=Wu-Tang Clan - C.R.E.A.M. (Cash Rules Everything Around Me)
TTITLE16=A Tribe Called Quest - Award Tour
TTITLE17=Angie Stone feat. Anthony Hamilton - Stay For a While
TTITLE18=Another Level - Be Alone No More
TTITLE19=Brownstone - If You Love Me
EXTD=
EXTT0=
EXTT1=
EXTT2=
EXTT3=
EXTT4=
EXTT5=
EXTT6=
EXTT7=
EXTT8=
EXTT9=
EXTT10=
EXTT11=
EXTT12=
EXTT13=
EXTT14=
EXTT15=
EXTT16=
EXTT17=
EXTT18=
EXTT19=
PLAYORDER=
